<svg xmlns="http://www.w3.org/2000/svg" viewBox="0 0 32 32" width="32" height="32">
  <defs>
    <linearGradient id="grad1" x1="0%" y1="0%" x2="100%" y2="100%">
      <stop offset="0%" style="stop-color:#007AFF;stop-opacity:1" />
      <stop offset="100%" style="stop-color:#5856D6;stop-opacity:1" />
    </linearGradient>
  </defs>
  
  <!-- Background -->
  <rect width="32" height="32" rx="6" fill="url(#grad1)"/>
  
  <!-- QR Code Pattern -->
  <!-- Top-left corner -->
  <rect x="3" y="3" width="6" height="6" fill="white" rx="1"/>
  <rect x="4" y="4" width="4" height="4" fill="url(#grad1)" rx="0.5"/>
  <rect x="5" y="5" width="2" height="2" fill="white"/>
  
  <!-- Top-right corner -->
  <rect x="23" y="3" width="6" height="6" fill="white" rx="1"/>
  <rect x="24" y="4" width="4" height="4" fill="url(#grad1)" rx="0.5"/>
  <rect x="25" y="5" width="2" height="2" fill="white"/>
  
  <!-- Bottom-left corner -->
  <rect x="3" y="23" width="6" height="6" fill="white" rx="1"/>
  <rect x="4" y="24" width="4" height="4" fill="url(#grad1)" rx="0.5"/>
  <rect x="5" y="25" width="2" height="2" fill="white"/>
  
  <!-- Center pattern -->
  <rect x="14" y="14" width="4" height="4" fill="white" rx="0.5"/>
  <rect x="15" y="15" width="2" height="2" fill="url(#grad1)"/>
  
  <!-- Scattered dots for QR pattern -->
  <rect x="12" y="3" width="1" height="1" fill="white"/>
  <rect x="14" y="3" width="1" height="1" fill="white"/>
  <rect x="16" y="3" width="1" height="1" fill="white"/>
  <rect x="18" y="3" width="1" height="1" fill="white"/>
  
  <rect x="3" y="12" width="1" height="1" fill="white"/>
  <rect x="3" y="14" width="1" height="1" fill="white"/>
  <rect x="3" y="16" width="1" height="1" fill="white"/>
  <rect x="3" y="18" width="1" height="1" fill="white"/>
  
  <rect x="12" y="28" width="1" height="1" fill="white"/>
  <rect x="14" y="28" width="1" height="1" fill="white"/>
  <rect x="16" y="28" width="1" height="1" fill="white"/>
  <rect x="18" y="28" width="1" height="1" fill="white"/>
  <rect x="20" y="28" width="1" height="1" fill="white"/>
  
  <rect x="28" y="12" width="1" height="1" fill="white"/>
  <rect x="28" y="14" width="1" height="1" fill="white"/>
  <rect x="28" y="16" width="1" height="1" fill="white"/>
  <rect x="28" y="18" width="1" height="1" fill="white"/>
  <rect x="28" y="20" width="1" height="1" fill="white"/>
  
  <!-- Additional pattern elements -->
  <rect x="11" y="11" width="1" height="1" fill="white"/>
  <rect x="20" y="11" width="1" height="1" fill="white"/>
  <rect x="11" y="20" width="1" height="1" fill="white"/>
  <rect x="20" y="20" width="1" height="1" fill="white"/>
</svg> 